<svg id="圖層_1" data-name="圖層 1" xmlns="http://www.w3.org/2000/svg" viewBox="0 0 28 28"><defs><style>.cls-1{fill:#fff;}.cls-2{fill:#8c9a27;}</style></defs><g id="Group_418" data-name="Group 418"><g id="Group_417" data-name="Group 417"><circle id="Ellipse_9" data-name="Ellipse 9" class="cls-1" cx="14" cy="14" r="13.96"/></g><path class="cls-2" d="M18,14.28c0,.26,0,.51-.05.76v.07c0,.28-.05.56-.08.84s-.07.54-.12.81-.15.7-.23,1l-.09.33s0,.07,0,.11a18,18,0,0,0-3.66-.38,17.36,17.36,0,0,0-3.66.38.82.82,0,0,1-.1-.3c-.1-.38-.19-.76-.27-1.15s-.08-.54-.12-.81,0-.42-.07-.63v0l0-.74c0-.1,0-.2,0-.29l0,0H18Z"/><path class="cls-2" d="M10,9.75a18.1,18.1,0,0,0,7.33,0c0,.09.07.19.09.28.09.39.19.78.27,1.17s.08.54.12.81a9,9,0,0,1,.08.91l0,.54a2,2,0,0,0,0,.25c-.12,0-8.16,0-8.54,0,0,0,0-.06,0-.09s0-.19,0-.29c0-.32,0-.64.06-1a15.4,15.4,0,0,1,.36-2c0-.17.09-.35.14-.52S10,9.78,10,9.75Z"/><path class="cls-2" d="M10.19,18.77a17.82,17.82,0,0,1,7,0,.47.47,0,0,1,0,.14A10,10,0,0,1,16.66,20a6.5,6.5,0,0,1-.8,1.21,3.65,3.65,0,0,1-1.19.95,2.36,2.36,0,0,1-1.11.23,2.48,2.48,0,0,1-1-.32,4,4,0,0,1-1.25-1.15,7.3,7.3,0,0,1-.68-1.14c-.14-.3-.26-.6-.39-.9A.45.45,0,0,0,10.19,18.77Z"/><path class="cls-2" d="M10.19,9.22c.05-.15.1-.28.15-.41A8,8,0,0,1,11.39,7a4,4,0,0,1,1.16-1,2.26,2.26,0,0,1,2.31,0,4,4,0,0,1,1.21,1.12,6.58,6.58,0,0,1,.72,1.2c.13.28.24.56.36.84,0,0,0,.06,0,.09A17.45,17.45,0,0,1,10.19,9.22Z"/><path class="cls-2" d="M22,14.28a8.19,8.19,0,0,1-.35,2.15,8.38,8.38,0,0,1-1.4,2.7,17.36,17.36,0,0,0-2.38-.76c0-.23.13-.44.17-.67s.1-.44.14-.66.09-.46.13-.69.06-.45.08-.69,0-.45.06-.68l0-.69C18.62,14.27,21.75,14.26,22,14.28Z"/><path class="cls-2" d="M7.09,19.13a8.09,8.09,0,0,1-1.73-4.85H8.85l0,.39c0,.24,0,.48,0,.71s.08.7.13,1a12,12,0,0,0,.4,1.87.07.07,0,0,1,0,.05v0A18.65,18.65,0,0,0,7.09,19.13Z"/><path class="cls-2" d="M8.86,13.72H5.36a.28.28,0,0,1,0-.09,7.9,7.9,0,0,1,.07-.85A8,8,0,0,1,6.34,10a8.62,8.62,0,0,1,.75-1.14,17.64,17.64,0,0,0,2.37.75V9.7a10.56,10.56,0,0,0-.29,1.14c-.06.29-.1.59-.15.9s-.07.56-.1.85,0,.41,0,.61S8.87,13.54,8.86,13.72Z"/><path class="cls-2" d="M17.9,9.63a17.81,17.81,0,0,0,2.38-.76A8.39,8.39,0,0,1,22,13.7c-.12,0-2.91.05-3.51,0,0,0,0-.05,0-.07,0-.22,0-.44,0-.66s-.06-.67-.1-1-.09-.62-.14-.93a11.88,11.88,0,0,0-.32-1.34S17.91,9.66,17.9,9.63Z"/><path class="cls-2" d="M11.62,5.92,11.56,6A5.71,5.71,0,0,0,10.4,7.46,9.29,9.29,0,0,0,9.7,9a.61.61,0,0,1,0,.12,12.56,12.56,0,0,1-2.18-.66,8.48,8.48,0,0,1,2.65-2A6.64,6.64,0,0,1,11.62,5.92Z"/><path class="cls-2" d="M11.61,22.1a7.72,7.72,0,0,1-1.73-.66,8,8,0,0,1-2.41-1.87,18.14,18.14,0,0,1,2.17-.67l.15.37A8.47,8.47,0,0,0,10.7,21a5.94,5.94,0,0,0,.67.83l.25.23Z"/><path class="cls-2" d="M19.91,8.42a17.53,17.53,0,0,1-2.17.68.48.48,0,0,1-.08-.18,9.22,9.22,0,0,0-1-1.93A6.08,6.08,0,0,0,16,6.16a2.89,2.89,0,0,0-.25-.24.27.27,0,0,1,.2,0,8.14,8.14,0,0,1,1.55.6,9.67,9.67,0,0,1,1.48,1C19.3,7.8,19.6,8.1,19.91,8.42Z"/><path class="cls-2" d="M17.73,18.9a18.88,18.88,0,0,1,2.18.67,8.16,8.16,0,0,1-4.16,2.51l.09-.1a5,5,0,0,0,.59-.63,6.88,6.88,0,0,0,.85-1.4c.14-.29.25-.59.38-.89Z"/></g></svg>