<svg id="icon_line" xmlns="http://www.w3.org/2000/svg" width="27.922" height="27.922" viewBox="0 0 27.922 27.922">
  <path id="Fill_1" data-name="Fill 1" d="M27.922,13.961A13.961,13.961,0,1,1,13.961,0,13.961,13.961,0,0,1,27.922,13.961" fill="#fff"/>
  <path id="Fill_3" data-name="Fill 3" d="M8.762,0c4.839,0,8.762,2.87,8.762,6.41a5.193,5.193,0,0,1-1.308,3.37,1.688,1.688,0,0,1-.163.185l0,0a7.318,7.318,0,0,1-.953.869c-2.423,2.046-6.411,4.482-6.938,4.106-.458-.327.754-1.925-.644-2.191q-.146-.015-.291-.034h0C3.117,12.188,0,9.565,0,6.41,0,2.87,3.923,0,8.762,0" transform="translate(5.405 7.239)" fill="#8c9a27"/>
  <path id="Fill_5" data-name="Fill 5" d="M10,3.939H8.39a.418.418,0,0,1-.418-.418V.425A.418.418,0,0,1,8.39.007H10a.418.418,0,0,1,.417.417V.46A.418.418,0,0,1,10,.877H8.841v.661H10a.418.418,0,0,1,.417.417V1.99A.418.418,0,0,1,10,2.408H8.841v.661H10a.418.418,0,0,1,.417.417v.035A.418.418,0,0,1,10,3.939ZM7.02,3.931H6.985A.422.422,0,0,1,6.826,3.9a.354.354,0,0,1-.162-.12.418.418,0,0,1-.031-.042L5.113,1.662V3.514a.418.418,0,0,1-.417.418H4.661a.418.418,0,0,1-.418-.418V.418A.418.418,0,0,1,4.661,0H4.7a.42.42,0,0,1,.363.211L6.568,2.235V.418A.418.418,0,0,1,6.985,0H7.02a.418.418,0,0,1,.418.418v3.1a.416.416,0,0,1-.121.293.294.294,0,0,1-.1.076A.413.413,0,0,1,7.02,3.931Zm-3.781,0H3.2a.418.418,0,0,1-.418-.418V.418A.418.418,0,0,1,3.2,0h.035a.418.418,0,0,1,.417.418v3.1A.418.418,0,0,1,3.239,3.931Zm-1.207,0H.418A.418.418,0,0,1,0,3.514V.418A.418.418,0,0,1,.418,0H.452A.418.418,0,0,1,.87.418V3.062H2.032a.418.418,0,0,1,.417.417v.035A.418.418,0,0,1,2.032,3.931Z" transform="translate(8.956 11.341)" fill="#fff"/>
</svg>
