<svg id="_1" data-name="1" xmlns="http://www.w3.org/2000/svg" width="27.922" height="27.922" viewBox="0 0 27.922 27.922">
  <g id="Group_418" data-name="Group 418" transform="translate(0 0)">
    <g id="Group_417" data-name="Group 417">
      <ellipse id="Ellipse_9" data-name="Ellipse 9" cx="13.961" cy="13.961" rx="13.961" ry="13.961" fill="#fff"/>
    </g>
    <path id="Path_2578" data-name="Path 2578" d="M204.615,1367.213v7.736a.2.2,0,0,0,.194.2h2.764a.2.2,0,0,0,.194-.2v-7.862h2a.2.2,0,0,0,.193-.184l.193-2.369a.2.2,0,0,0-.193-.219h-2.2v-1.681a.7.7,0,0,1,.686-.713H210a.2.2,0,0,0,.194-.2v-2.369a.2.2,0,0,0-.194-.2h-2.609a2.829,2.829,0,0,0-2.773,2.882v2.284h-1.382a.2.2,0,0,0-.194.2v2.369a.2.2,0,0,0,.194.2h1.382Z" transform="translate(-192.971 -1352.964)" fill="#8c9a27" fill-rule="evenodd"/>
  </g>
</svg>
